<svg width="20" height="20" viewBox="0 0 20 20" fill="none" xmlns="http://www.w3.org/2000/svg">
<mask id="mask0_119_37957" style="mask-type:alpha" maskUnits="userSpaceOnUse" x="0" y="0" width="20" height="20">
<rect width="20" height="20" fill="#D9D9D9"/>
</mask>
<g mask="url(#mask0_119_37957)">
<path d="M5.83325 11.6667C5.37492 11.6667 4.9827 11.5033 4.65659 11.1767C4.32992 10.8506 4.16659 10.4583 4.16659 10C4.16659 9.54167 4.32992 9.14917 4.65659 8.8225C4.9827 8.49639 5.37492 8.33333 5.83325 8.33333C6.29159 8.33333 6.68381 8.49639 7.00992 8.8225C7.33658 9.14917 7.49992 9.54167 7.49992 10C7.49992 10.4583 7.33658 10.8506 7.00992 11.1767C6.68381 11.5033 6.29159 11.6667 5.83325 11.6667ZM5.83325 15C4.44436 15 3.26381 14.5139 2.29159 13.5417C1.31936 12.5694 0.833252 11.3889 0.833252 10C0.833252 8.61111 1.31936 7.43056 2.29159 6.45833C3.26381 5.48611 4.44436 5 5.83325 5C6.76381 5 7.6077 5.22917 8.36492 5.6875C9.12159 6.14583 9.72214 6.75 10.1666 7.5H17.4999L19.9999 10L16.2499 13.75L14.5833 12.5L12.9166 13.75L11.1458 12.5H10.1666C9.72214 13.25 9.12159 13.8542 8.36492 14.3125C7.6077 14.7708 6.76381 15 5.83325 15ZM5.83325 13.3333C6.61103 13.3333 7.2952 13.0972 7.88575 12.625C8.47575 12.1528 8.86797 11.5556 9.06242 10.8333H11.6666L12.8749 11.6875L14.5833 10.4167L16.0624 11.5625L17.6249 10L16.7916 9.16667H9.06242C8.86797 8.44444 8.47575 7.84722 7.88575 7.375C7.2952 6.90278 6.61103 6.66667 5.83325 6.66667C4.91659 6.66667 4.13186 6.99306 3.47909 7.64583C2.82631 8.29861 2.49992 9.08333 2.49992 10C2.49992 10.9167 2.82631 11.7014 3.47909 12.3542C4.13186 13.0069 4.91659 13.3333 5.83325 13.3333Z" fill="#3A4245"/>
</g>
</svg>
