<svg width="20" height="20" viewBox="0 0 20 20" fill="none" xmlns="http://www.w3.org/2000/svg">
<mask id="mask0_119_37993" style="mask-type:alpha" maskUnits="userSpaceOnUse" x="0" y="0" width="20" height="20">
<rect width="20" height="20" fill="#D9D9D9"/>
</mask>
<g mask="url(#mask0_119_37993)">
<path d="M4.99992 18.332C4.54159 18.332 4.14936 18.169 3.82325 17.8429C3.49659 17.5162 3.33325 17.1237 3.33325 16.6654V8.33203C3.33325 7.8737 3.49659 7.4812 3.82325 7.15453C4.14936 6.82842 4.54159 6.66536 4.99992 6.66536H5.83325V4.9987C5.83325 3.84592 6.23964 2.86314 7.05242 2.05036C7.86464 1.23814 8.84714 0.832031 9.99992 0.832031C11.1527 0.832031 12.1355 1.23814 12.9483 2.05036C13.7605 2.86314 14.1666 3.84592 14.1666 4.9987V6.66536H14.9999C15.4583 6.66536 15.8508 6.82842 16.1774 7.15453C16.5035 7.4812 16.6666 7.8737 16.6666 8.33203V16.6654C16.6666 17.1237 16.5035 17.5162 16.1774 17.8429C15.8508 18.169 15.4583 18.332 14.9999 18.332H4.99992ZM4.99992 16.6654H14.9999V8.33203H4.99992V16.6654ZM9.99992 14.1654C10.4583 14.1654 10.8508 14.0023 11.1774 13.6762C11.5035 13.3495 11.6666 12.957 11.6666 12.4987C11.6666 12.0404 11.5035 11.6479 11.1774 11.3212C10.8508 10.9951 10.4583 10.832 9.99992 10.832C9.54159 10.832 9.14936 10.9951 8.82325 11.3212C8.49659 11.6479 8.33325 12.0404 8.33325 12.4987C8.33325 12.957 8.49659 13.3495 8.82325 13.6762C9.14936 14.0023 9.54159 14.1654 9.99992 14.1654ZM7.49992 6.66536H12.4999V4.9987C12.4999 4.30425 12.2569 3.71398 11.7708 3.22786C11.2846 2.74175 10.6944 2.4987 9.99992 2.4987C9.30547 2.4987 8.7152 2.74175 8.22909 3.22786C7.74297 3.71398 7.49992 4.30425 7.49992 4.9987V6.66536Z" fill="#3A4245"/>
</g>
</svg>
