<svg width="20" height="20" viewBox="0 0 20 20" fill="none" xmlns="http://www.w3.org/2000/svg">
<mask id="mask0_119_37995" style="mask-type:alpha" maskUnits="userSpaceOnUse" x="0" y="0" width="20" height="20">
<rect width="20" height="20" fill="#D9D9D9"/>
</mask>
<g mask="url(#mask0_119_37995)">
<path d="M10.8333 20C9.4027 20 8.09714 19.6006 6.91659 18.8017C5.73603 18.0033 4.88186 16.9375 4.35409 15.6042L2.22909 10.25C2.17353 10.1111 2.13547 9.9825 2.11492 9.86417C2.09381 9.74639 2.08325 9.61111 2.08325 9.45833C2.08325 9.04167 2.24297 8.67361 2.56242 8.35417C2.88186 8.03472 3.24992 7.875 3.66659 7.875C3.76381 7.875 3.85075 7.87833 3.92742 7.885C4.00353 7.89222 4.08325 7.90972 4.16659 7.9375L4.81242 8.10417C5.00686 8.15972 5.18742 8.2325 5.35409 8.3225C5.52075 8.41306 5.68047 8.52778 5.83325 8.66667V3.75C5.83325 3.16667 6.03464 2.67361 6.43742 2.27083C6.8402 1.86806 7.33325 1.66667 7.91659 1.66667C7.99992 1.66667 8.07992 1.67 8.15659 1.67667C8.2327 1.68389 8.30547 1.69444 8.37492 1.70833C8.45825 1.18056 8.69797 0.763889 9.09409 0.458333C9.48964 0.152778 9.93047 0 10.4166 0C10.861 0 11.2569 0.121667 11.6041 0.365C11.9513 0.607778 12.2013 0.930556 12.3541 1.33333C12.4513 1.30556 12.5452 1.28472 12.6358 1.27083C12.7258 1.25694 12.8194 1.25 12.9166 1.25C13.4999 1.25 13.993 1.45139 14.3958 1.85417C14.7985 2.25694 14.9999 2.75 14.9999 3.33333V3.79167C15.0694 3.77778 15.1388 3.76722 15.2083 3.76C15.2777 3.75333 15.3471 3.75 15.4166 3.75C15.9999 3.75 16.493 3.95139 16.8958 4.35417C17.2985 4.75694 17.4999 5.25 17.4999 5.83333V13.3333C17.4999 15.1944 16.8541 16.7708 15.5624 18.0625C14.2708 19.3542 12.6944 20 10.8333 20ZM10.8333 18.3333C12.2221 18.3333 13.4027 17.8472 14.3749 16.875C15.3471 15.9028 15.8333 14.7222 15.8333 13.3333V5.83333C15.8333 5.72222 15.7916 5.625 15.7083 5.54167C15.6249 5.45833 15.5277 5.41667 15.4166 5.41667C15.3055 5.41667 15.2083 5.45833 15.1249 5.54167C15.0416 5.625 14.9999 5.72222 14.9999 5.83333V10H13.3333V3.33333C13.3333 3.22222 13.2916 3.125 13.2083 3.04167C13.1249 2.95833 13.0277 2.91667 12.9166 2.91667C12.8055 2.91667 12.7083 2.95833 12.6249 3.04167C12.5416 3.125 12.4999 3.22222 12.4999 3.33333V10H10.8333V2.08333C10.8333 1.97222 10.7916 1.875 10.7083 1.79167C10.6249 1.70833 10.5277 1.66667 10.4166 1.66667C10.3055 1.66667 10.2083 1.70833 10.1249 1.79167C10.0416 1.875 9.99992 1.97222 9.99992 2.08333V10H8.33325V3.75C8.33325 3.63889 8.29159 3.54167 8.20825 3.45833C8.12492 3.375 8.0277 3.33333 7.91659 3.33333C7.80547 3.33333 7.70825 3.375 7.62492 3.45833C7.54159 3.54167 7.49992 3.63889 7.49992 3.75V12.5H5.83325L5.02075 10.4167C4.92353 10.1806 4.78825 10.0069 4.61492 9.89583C4.44103 9.78472 4.1527 9.66667 3.74992 9.54167L5.91659 15C6.31936 16 6.96881 16.8056 7.86492 17.4167C8.76047 18.0278 9.74992 18.3333 10.8333 18.3333Z" fill="#3A4245"/>
</g>
</svg>
