<svg width="20" height="20" viewBox="0 0 20 20" fill="none" xmlns="http://www.w3.org/2000/svg">
<mask id="mask0_119_37994" style="mask-type:alpha" maskUnits="userSpaceOnUse" x="0" y="0" width="20" height="20">
<rect width="20" height="20" fill="#D9D9D9"/>
</mask>
<g mask="url(#mask0_119_37994)">
<path d="M10.0001 18.332C8.86119 18.332 7.7848 18.1131 6.77091 17.6754C5.75703 17.2381 4.87175 16.6409 4.11508 15.8837C3.35786 15.127 2.76064 14.2418 2.32341 13.2279C1.88564 12.214 1.66675 11.1376 1.66675 9.9987C1.66675 8.84592 1.88564 7.7662 2.32341 6.75953C2.76064 5.75231 3.35786 4.87036 4.11508 4.1137C4.87175 3.35648 5.75703 2.75898 6.77091 2.3212C7.7848 1.88398 8.86119 1.66536 10.0001 1.66536C10.4445 1.66536 10.8717 1.69648 11.2817 1.7587C11.6912 1.82148 12.0973 1.91536 12.5001 2.04036V4.16536C12.5001 4.6237 12.337 5.01592 12.0109 5.34203C11.6842 5.6687 11.2917 5.83203 10.8334 5.83203H9.16675V7.4987C9.16675 7.73481 9.08703 7.93259 8.92758 8.09203C8.76758 8.25203 8.56953 8.33203 8.33341 8.33203H6.66675V9.9987H11.6667C11.9029 9.9987 12.1009 10.0784 12.2609 10.2379C12.4204 10.3979 12.5001 10.5959 12.5001 10.832V13.332H13.3334C13.7084 13.332 14.0384 13.4431 14.3234 13.6654C14.6079 13.8876 14.8056 14.1654 14.9167 14.4987C15.4584 13.8876 15.8856 13.2037 16.1984 12.447C16.5106 11.6898 16.6667 10.8737 16.6667 9.9987C16.6667 9.84592 16.6598 9.70703 16.6459 9.58203C16.632 9.45703 16.6112 9.31814 16.5834 9.16536H18.2917C18.3195 9.31814 18.3334 9.45703 18.3334 9.58203V9.9987C18.3334 11.1376 18.1145 12.214 17.6767 13.2279C17.2395 14.2418 16.6423 15.127 15.8851 15.8837C15.1284 16.6409 14.2465 17.2381 13.2392 17.6754C12.2326 18.1131 11.1529 18.332 10.0001 18.332ZM9.16675 16.6237V14.9987C8.70841 14.9987 8.31619 14.8356 7.99008 14.5095C7.66341 14.1829 7.50008 13.7904 7.50008 13.332V12.4987L3.50008 8.4987C3.45841 8.7487 3.42008 8.9987 3.38508 9.2487C3.35064 9.4987 3.33341 9.7487 3.33341 9.9987C3.33341 11.7209 3.89258 13.2034 5.01091 14.4462C6.12869 15.6895 7.51397 16.4154 9.16675 16.6237ZM15.0001 7.4987C14.764 7.4987 14.5662 7.4187 14.4067 7.2587C14.2467 7.09925 14.1667 6.90148 14.1667 6.66536V4.16536C14.1667 3.92925 14.2467 3.7312 14.4067 3.5712C14.5662 3.41175 14.764 3.33203 15.0001 3.33203V2.4987C15.0001 2.04036 15.1631 1.64786 15.4892 1.3212C15.8159 0.995087 16.2084 0.832031 16.6667 0.832031C17.1251 0.832031 17.5176 0.995087 17.8442 1.3212C18.1704 1.64786 18.3334 2.04036 18.3334 2.4987V3.33203C18.5695 3.33203 18.7673 3.41175 18.9267 3.5712C19.0867 3.7312 19.1667 3.92925 19.1667 4.16536V6.66536C19.1667 6.90148 19.0867 7.09925 18.9267 7.2587C18.7673 7.4187 18.5695 7.4987 18.3334 7.4987H15.0001ZM15.8334 3.33203H17.5001V2.4987C17.5001 2.26259 17.4201 2.06453 17.2601 1.90453C17.1006 1.74509 16.9029 1.66536 16.6667 1.66536C16.4306 1.66536 16.2329 1.74509 16.0734 1.90453C15.9134 2.06453 15.8334 2.26259 15.8334 2.4987V3.33203Z" fill="#3A4245"/>
</g>
</svg>
