<svg width="20" height="20" viewBox="0 0 20 20" fill="none" xmlns="http://www.w3.org/2000/svg">
<mask id="mask0_119_37946" style="mask-type:alpha" maskUnits="userSpaceOnUse" x="0" y="0" width="20" height="20">
<rect width="20" height="20" fill="#D9D9D9"/>
</mask>
<g mask="url(#mask0_119_37946)">
<path d="M5.83337 15C4.44449 15 3.26393 14.5139 2.29171 13.5417C1.31949 12.5694 0.833374 11.3889 0.833374 10C0.833374 8.61111 1.31949 7.43056 2.29171 6.45833C3.26393 5.48611 4.44449 5 5.83337 5H14.1667C15.5556 5 16.7362 5.48611 17.7084 6.45833C18.6806 7.43056 19.1667 8.61111 19.1667 10C19.1667 11.3889 18.6806 12.5694 17.7084 13.5417C16.7362 14.5139 15.5556 15 14.1667 15H5.83337ZM5.83337 13.3333H14.1667C15.0834 13.3333 15.8681 13.0069 16.5209 12.3542C17.1737 11.7014 17.5 10.9167 17.5 10C17.5 9.08333 17.1737 8.29861 16.5209 7.64583C15.8681 6.99306 15.0834 6.66667 14.1667 6.66667H5.83337C4.91671 6.66667 4.13199 6.99306 3.47921 7.64583C2.82643 8.29861 2.50004 9.08333 2.50004 10C2.50004 10.9167 2.82643 11.7014 3.47921 12.3542C4.13199 13.0069 4.91671 13.3333 5.83337 13.3333ZM5.83337 12.5C6.52782 12.5 7.1181 12.2569 7.60421 11.7708C8.09032 11.2847 8.33337 10.6944 8.33337 10C8.33337 9.30556 8.09032 8.71528 7.60421 8.22917C7.1181 7.74306 6.52782 7.5 5.83337 7.5C5.13893 7.5 4.54865 7.74306 4.06254 8.22917C3.57643 8.71528 3.33337 9.30556 3.33337 10C3.33337 10.6944 3.57643 11.2847 4.06254 11.7708C4.54865 12.2569 5.13893 12.5 5.83337 12.5Z" fill="#3A4245"/>
</g>
</svg>
