<svg width="20" height="20" viewBox="0 0 20 20" fill="none" xmlns="http://www.w3.org/2000/svg">
<mask id="mask0_119_37945" style="mask-type:alpha" maskUnits="userSpaceOnUse" x="0" y="0" width="20" height="20">
<rect width="20" height="20" fill="#D9D9D9"/>
</mask>
<g mask="url(#mask0_119_37945)">
<path d="M6.66667 7.5C6.90278 7.5 7.10083 7.42 7.26083 7.26C7.42028 7.10056 7.5 6.90278 7.5 6.66667C7.5 6.43056 7.42028 6.2325 7.26083 6.0725C7.10083 5.91306 6.90278 5.83333 6.66667 5.83333C6.43056 5.83333 6.2325 5.91306 6.0725 6.0725C5.91306 6.2325 5.83333 6.43056 5.83333 6.66667C5.83333 6.90278 5.91306 7.10056 6.0725 7.26C6.2325 7.42 6.43056 7.5 6.66667 7.5ZM6.66667 10.8333C6.90278 10.8333 7.10083 10.7533 7.26083 10.5933C7.42028 10.4339 7.5 10.2361 7.5 10C7.5 9.76389 7.42028 9.56583 7.26083 9.40583C7.10083 9.24639 6.90278 9.16667 6.66667 9.16667C6.43056 9.16667 6.2325 9.24639 6.0725 9.40583C5.91306 9.56583 5.83333 9.76389 5.83333 10C5.83333 10.2361 5.91306 10.4339 6.0725 10.5933C6.2325 10.7533 6.43056 10.8333 6.66667 10.8333ZM6.66667 14.1667C6.90278 14.1667 7.10083 14.0867 7.26083 13.9267C7.42028 13.7672 7.5 13.5694 7.5 13.3333C7.5 13.0972 7.42028 12.8992 7.26083 12.7392C7.10083 12.5797 6.90278 12.5 6.66667 12.5C6.43056 12.5 6.2325 12.5797 6.0725 12.7392C5.91306 12.8992 5.83333 13.0972 5.83333 13.3333C5.83333 13.5694 5.91306 13.7672 6.0725 13.9267C6.2325 14.0867 6.43056 14.1667 6.66667 14.1667ZM4.16667 17.5C3.70833 17.5 3.31583 17.3369 2.98917 17.0108C2.66306 16.6842 2.5 16.2917 2.5 15.8333V4.16667C2.5 3.70833 2.66306 3.31583 2.98917 2.98917C3.31583 2.66306 3.70833 2.5 4.16667 2.5H13.3333L17.5 6.66667V15.8333C17.5 16.2917 17.3369 16.6842 17.0108 17.0108C16.6842 17.3369 16.2917 17.5 15.8333 17.5H4.16667ZM4.16667 15.8333H15.8333V7.5H12.5V4.16667H4.16667V15.8333Z" fill="#3A4245"/>
</g>
</svg>
