<svg xmlns="http://www.w3.org/2000/svg" width="24" height="24" fill="none" viewBox="0 0 24 24">
  <path fill="#3A4245" fill-rule="evenodd" d="M5 5.103c0 .246.103.484.298.641a.906.906 0 0 0 1.19.026 8.479 8.479 0 0 1 5.464-2.01 8.5 8.5 0 0 1 5.556 2.078c.315.311.843.297 1.19.004.209-.203.302-.41.302-.667 0-.24-.098-.47-.276-.644A10.353 10.353 0 0 0 11.952 2c-2.43 0-4.806.87-6.652 2.437-.193.142-.3.391-.3.666Zm6.976 3.366c-1.98 0-3.59 1.592-3.59 3.531 0 1.94 1.61 3.531 3.59 3.531 1.988 0 3.59-1.576 3.59-3.53 0-1.956-1.602-3.532-3.59-3.532Zm0 1.296c1.257 0 2.273.998 2.273 2.235 0 1.237-1.016 2.235-2.273 2.235-1.258 0-2.273-.998-2.273-2.235 0-1.237 1.015-2.235 2.273-2.235ZM5.324 18.3a.845.845 0 0 0-.276.62c0 .28.112.523.327.692a10.275 10.275 0 0 0 6.6 2.388c2.466 0 4.841-.878 6.704-2.488.19-.138.297-.388.297-.663a.815.815 0 0 0-.324-.661c-.282-.283-.796-.297-1.166-.024a8.482 8.482 0 0 1-5.534 2.052 8.478 8.478 0 0 1-5.417-1.964c-.391-.29-.881-.275-1.21.048Zm2.046-1.686c.108.432.192.606.41.743a6.93 6.93 0 0 0 8.466-.116c.222-.214.336-.438.336-.699a.815.815 0 0 0-.324-.66c-.272-.274-.756-.302-1.109-.054a5.195 5.195 0 0 1-3.221 1.13c-1.12 0-2.19-.363-3.116-1.052a.906.906 0 0 0-1.166.087.845.845 0 0 0-.276.62Zm.276-8.607.025.023c.321.27.79.311 1.131.071a5.087 5.087 0 0 1 3.15-1.083c1.185 0 2.315.397 3.22 1.135.348.293.853.25 1.182-.075a.845.845 0 0 0 .276-.62.924.924 0 0 0-.3-.668 6.91 6.91 0 0 0-4.378-1.556 6.893 6.893 0 0 0-4.243 1.45.862.862 0 0 0-.34.702c0 .241.098.445.277.62Z" clip-rule="evenodd"/>
</svg>
