<svg xmlns="http://www.w3.org/2000/svg" width="24" height="24" fill="none" viewBox="0 0 24 24">
  <path fill="#3A4245" fill-rule="evenodd" d="M6.587 6.588A1.925 1.925 0 0 0 6 8v12c0 .55.196 1.021.587 1.413A1.93 1.93 0 0 0 8 22h12a1.93 1.93 0 0 0 1.413-.587A1.93 1.93 0 0 0 22 20V8c0-.55-.196-1.02-.587-1.412A1.927 1.927 0 0 0 20 6H8c-.55 0-1.021.196-1.413.588ZM10 15h8v-2h-8v2Z" clip-rule="evenodd"/>
  <path fill="#3A4245" d="M2.587 2.588A1.925 1.925 0 0 0 2 4v14h2V4h14V2H4c-.55 0-1.021.196-1.413.588Z"/>
</svg>
