<svg xmlns="http://www.w3.org/2000/svg" width="24" height="24" fill="none" viewBox="0 0 24 24">
  <path fill="#3A4245" d="m19.8 22.6-4.2-4.15a12.06 12.06 0 0 1-1.762.413c-.592.091-1.205.137-1.838.137-2.517 0-4.758-.696-6.725-2.087C3.308 15.521 1.883 13.717 1 11.5c.35-.883.792-1.704 1.325-2.463A11.522 11.522 0 0 1 4.15 7L1.4 4.2l1.4-1.4 18.4 18.4-1.4 1.4ZM12 16c.183 0 .354-.008.512-.025.159-.017.33-.05.513-.1l-5.4-5.4a3.25 3.25 0 0 0-.1.513 4.895 4.895 0 0 0-.025.512c0 1.25.437 2.313 1.312 3.188S10.75 16 12 16Zm7.3.45-3.175-3.15a5.46 5.46 0 0 0 .275-.862c.067-.292.1-.605.1-.938 0-1.25-.437-2.313-1.312-3.188S13.25 7 12 7a4.19 4.19 0 0 0-.938.1 4.244 4.244 0 0 0-.862.3L7.65 4.85a11.106 11.106 0 0 1 2.1-.638A11.608 11.608 0 0 1 12 4c2.517 0 4.758.696 6.725 2.087C20.692 7.479 22.117 9.283 23 11.5a11.714 11.714 0 0 1-1.512 2.738A11.025 11.025 0 0 1 19.3 16.45Zm-4.625-4.6-3-3a2.3 2.3 0 0 1 1.288.112c.391.159.729.388 1.012.688.283.3.488.646.613 1.038.125.391.154.779.087 1.162Z"/>
</svg>
