<svg xmlns="http://www.w3.org/2000/svg" width="24" height="24" fill="none" viewBox="0 0 24 24">
  <path fill="#3A4245" d="M5 11c-.55 0-1.021-.196-1.413-.588A1.925 1.925 0 0 1 3 9V5c0-.55.196-1.021.587-1.413A1.928 1.928 0 0 1 5 3h14c.55 0 1.021.196 1.413.587.391.392.587.863.587 1.413v4c0 .55-.196 1.02-.587 1.412A1.927 1.927 0 0 1 19 11H5Zm0 10a1.93 1.93 0 0 1-1.413-.587A1.928 1.928 0 0 1 3 19v-4c0-.55.196-1.021.587-1.413A1.928 1.928 0 0 1 5 13h14c.55 0 1.021.196 1.413.587.391.392.587.863.587 1.413v4a1.93 1.93 0 0 1-.587 1.413A1.928 1.928 0 0 1 19 21H5Z"/>
</svg>
