<svg width="64" height="64" viewBox="0 0 64 64" fill="none" xmlns="http://www.w3.org/2000/svg">
<g clip-path="url(#clip0_3982_4616)">
<path d="M37.2836 8.12459V3.47334H38.9448V0H25.1723V3.47334H26.8334V8.15479C13.8462 10.6314 4 22.0783 4 35.8207C4 51.3752 16.6248 64 32.1793 64C47.7338 64 60.3587 51.3752 60.3587 35.8207C60.3587 22.0179 50.4219 10.5106 37.2836 8.12459ZM32.9646 50.2879V48.6569H31.3336V50.2577C23.9943 49.8348 18.135 43.9151 17.7423 36.5757H19.3733V34.9448H17.7725C18.1954 27.6357 24.0547 21.8065 31.3638 21.3535V22.9542H32.9948V21.3233C40.3643 21.7159 46.2841 27.6055 46.6767 34.975H45.0458V36.6059H46.6767C46.2237 44.0057 40.3341 49.9254 32.9646 50.2879Z" fill="#FF282D"/>
<path d="M38.0991 28.9344L33.0854 33.3138C32.1491 32.9816 31.0618 33.193 30.3067 33.9481C29.2496 35.0052 29.2496 36.6966 30.3067 37.7235C31.3638 38.7806 33.0552 38.7806 34.0821 37.7235C34.8372 36.9684 35.0486 35.8811 34.7164 34.9448L39.1562 29.9915L38.0991 28.9344Z" fill="#FF282D"/>
</g>
<defs>
<clipPath id="clip0_3982_4616">
<rect width="56.3587" height="64" fill="white" transform="translate(4)"/>
</clipPath>
</defs>
</svg>
