<svg width="55" height="20" viewBox="0 0 55 20" fill="none" xmlns="http://www.w3.org/2000/svg">
<rect x="0.5" y="0.5" width="54" height="19" rx="9.5" fill="#F1F2F3"/>
<path d="M10.928 14.414C10.416 14.414 9.976 14.318 9.608 14.126C9.24 13.926 8.936 13.642 8.696 13.274C8.456 12.906 8.28 12.454 8.168 11.918C8.056 11.382 8 10.77 8 10.082C8 9.402 8.056 8.794 8.168 8.258C8.28 7.714 8.456 7.258 8.696 6.89C8.936 6.522 9.24 6.242 9.608 6.05C9.976 5.85 10.416 5.75 10.928 5.75C11.44 5.75 11.88 5.85 12.248 6.05C12.616 6.242 12.92 6.522 13.16 6.89C13.4 7.258 13.576 7.714 13.688 8.258C13.8 8.794 13.856 9.402 13.856 10.082C13.856 10.77 13.8 11.382 13.688 11.918C13.576 12.454 13.4 12.906 13.16 13.274C12.92 13.642 12.616 13.926 12.248 14.126C11.88 14.318 11.44 14.414 10.928 14.414ZM10.928 13.538C11.264 13.538 11.548 13.474 11.78 13.346C12.012 13.21 12.204 13.022 12.356 12.782C12.508 12.542 12.616 12.254 12.68 11.918C12.752 11.574 12.788 11.19 12.788 10.766V9.398C12.788 8.982 12.752 8.602 12.68 8.258C12.616 7.914 12.508 7.622 12.356 7.382C12.204 7.142 12.012 6.958 11.78 6.83C11.548 6.694 11.264 6.626 10.928 6.626C10.592 6.626 10.308 6.694 10.076 6.83C9.844 6.958 9.652 7.142 9.5 7.382C9.348 7.622 9.236 7.914 9.164 8.258C9.1 8.602 9.068 8.982 9.068 9.398V10.766C9.068 11.19 9.1 11.574 9.164 11.918C9.236 12.254 9.348 12.542 9.5 12.782C9.652 13.022 9.844 13.21 10.076 13.346C10.308 13.474 10.592 13.538 10.928 13.538Z" fill="#515C61"/>
<path d="M15.6633 8.078H16.6233V9.086H16.6713C17.0713 8.318 17.7073 7.934 18.5793 7.934C19.3393 7.934 19.9313 8.218 20.3553 8.786C20.7873 9.354 21.0033 10.15 21.0033 11.174C21.0033 12.198 20.7873 12.994 20.3553 13.562C19.9313 14.13 19.3393 14.414 18.5793 14.414C17.7073 14.414 17.0713 14.03 16.6713 13.262H16.6233V16.67H15.6633V8.078ZM18.2073 13.562C18.7673 13.562 19.1993 13.394 19.5033 13.058C19.8153 12.714 19.9713 12.262 19.9713 11.702V10.646C19.9713 10.086 19.8153 9.638 19.5033 9.302C19.1993 8.958 18.7673 8.786 18.2073 8.786C17.9913 8.786 17.7873 8.814 17.5953 8.87C17.4033 8.926 17.2353 9.01 17.0913 9.122C16.9473 9.226 16.8313 9.358 16.7433 9.518C16.6633 9.67 16.6233 9.85 16.6233 10.058V12.29C16.6233 12.498 16.6633 12.682 16.7433 12.842C16.8313 12.994 16.9473 13.126 17.0913 13.238C17.2353 13.342 17.4033 13.422 17.5953 13.478C17.7873 13.534 17.9913 13.562 18.2073 13.562Z" fill="#515C61"/>
<path d="M25.6186 14.27C25.1466 14.27 24.7986 14.138 24.5746 13.874C24.3586 13.61 24.2506 13.27 24.2506 12.854V8.894H22.1866V8.078H23.7226C23.9306 8.078 24.0746 8.038 24.1546 7.958C24.2426 7.87 24.2866 7.722 24.2866 7.514V5.894H25.2106V8.078H28.0306V8.894H25.2106V13.454H28.0306V14.27H25.6186Z" fill="#515C61"/>
<path d="M34.2533 13.526V11.018H31.8532V10.202H34.2533V7.694H35.1652V10.202H37.5653V11.018H35.1652V13.526H34.2533Z" fill="#515C61"/>
<path d="M44.0759 14.414C43.3239 14.414 42.7079 14.278 42.2279 14.006C41.7479 13.726 41.3519 13.37 41.0399 12.938L41.7719 12.338C42.0999 12.746 42.4439 13.05 42.8039 13.25C43.1719 13.45 43.6079 13.55 44.1119 13.55C44.7199 13.55 45.1839 13.41 45.5039 13.13C45.8239 12.85 45.9839 12.458 45.9839 11.954C45.9839 11.546 45.8679 11.23 45.6359 11.006C45.4039 10.774 44.9999 10.61 44.4239 10.514L43.4879 10.358C43.0799 10.286 42.7359 10.178 42.4559 10.034C42.1839 9.89 41.9639 9.718 41.7959 9.518C41.6279 9.31 41.5079 9.086 41.4359 8.846C41.3639 8.598 41.3279 8.342 41.3279 8.078C41.3279 7.31 41.5799 6.73 42.0839 6.338C42.5879 5.946 43.2679 5.75 44.1239 5.75C44.7959 5.75 45.3599 5.862 45.8159 6.086C46.2799 6.31 46.6519 6.626 46.9319 7.034L46.2239 7.646C45.9919 7.342 45.7119 7.094 45.3839 6.902C45.0559 6.71 44.6319 6.614 44.1119 6.614C43.5439 6.614 43.1079 6.734 42.8039 6.974C42.4999 7.214 42.3479 7.574 42.3479 8.054C42.3479 8.43 42.4599 8.738 42.6839 8.978C42.9159 9.21 43.3279 9.378 43.9199 9.482L44.8199 9.638C45.2279 9.71 45.5719 9.818 45.8519 9.962C46.1319 10.106 46.3559 10.278 46.5239 10.478C46.6999 10.678 46.8239 10.902 46.8959 11.15C46.9679 11.398 47.0039 11.658 47.0039 11.93C47.0039 12.706 46.7479 13.314 46.2359 13.754C45.7319 14.194 45.0119 14.414 44.0759 14.414Z" fill="#515C61"/>
<rect x="0.5" y="0.5" width="54" height="19" rx="9.5" stroke="#D5DADC"/>
</svg>
