<svg width="442" height="64" viewBox="0 0 442 64" fill="none" xmlns="http://www.w3.org/2000/svg">
<path d="M94.8334 19.6723C94.188 18.705 93.2205 18.0602 91.9301 17.4154C90.6397 16.7705 89.3497 16.4481 88.0593 16.4481C87.414 16.4481 86.4465 16.6093 85.8014 16.7705C85.1561 16.9317 84.3496 17.2542 83.7046 17.7378C83.0596 18.0602 82.5757 18.705 82.0918 19.3499C81.7692 19.9947 81.4467 20.8007 81.4467 21.768C81.4467 22.574 81.6078 23.3801 81.9303 24.0249C82.2532 24.6698 82.7368 25.1534 83.3821 25.637C84.0271 26.1206 84.6722 26.4431 85.4786 26.7655C86.4465 27.0879 87.2529 27.4103 88.3819 27.7327C89.5108 28.0552 90.8012 28.5388 92.0915 29.0224C93.3816 29.506 94.5105 30.1509 95.6398 30.9569C96.7688 31.763 97.5752 32.7302 98.2202 34.02C98.8652 35.1485 99.1881 36.7606 99.1881 38.5337C99.1881 40.4682 98.8652 42.2417 98.0588 43.6924C97.4138 45.1432 96.2848 46.433 95.1559 47.4001C94.0269 48.3675 92.5751 49.1735 90.9623 49.6572C89.3497 50.1406 87.5754 50.4633 85.8014 50.4633C83.3821 50.4633 81.1242 49.9796 78.7049 49.0122C76.4467 48.0451 74.5113 46.7554 73.0598 45.1432L77.737 40.7906C78.7049 42.0803 79.8339 43.0477 81.2853 43.8538C82.8982 44.6595 84.3496 44.9822 85.8014 44.9822C86.4465 44.9822 87.414 44.8209 88.2204 44.6595C89.0269 44.4985 89.8333 44.1762 90.3172 43.6924C90.9623 43.2087 91.4462 42.725 91.9301 41.919C92.2526 41.2743 92.5751 40.3072 92.5751 39.3398C92.5751 38.3724 92.414 37.5666 91.9301 36.9216C91.4462 36.2769 90.8012 35.7932 90.1562 35.3095C89.5108 34.8261 88.5433 34.3424 87.414 34.02C86.285 33.6973 85.3175 33.2138 84.1886 32.8914C83.0596 32.569 81.9303 32.0854 80.8014 31.6017C79.6724 31.1181 78.7049 30.4733 77.737 29.6673C76.7695 28.8612 76.1242 27.894 75.6402 26.7655C75.1566 25.637 74.8341 24.1861 74.8341 22.4128C74.8341 20.4783 75.1566 18.8662 75.9631 17.5766C76.7695 16.1257 77.737 15.1584 79.0274 14.1912C80.3178 13.2239 81.7692 12.5791 83.3821 12.2567C84.995 11.773 86.6079 11.6118 88.2204 11.6118C90.1562 11.6118 92.0915 11.9342 93.8655 12.5791C95.8009 13.2239 97.4138 14.1912 98.8652 15.6421L94.8334 19.6723Z" fill="#182931"/>
<path d="M104.509 15.9628C104.509 14.9955 104.831 14.1895 105.638 13.3834C106.283 12.7386 107.412 12.2549 108.379 12.2549C109.508 12.2549 110.476 12.5774 111.283 13.3834C112.089 14.0282 112.412 14.9955 112.412 15.9628C112.412 16.93 112.089 17.8973 111.283 18.5421C110.476 19.187 109.508 19.6706 108.379 19.6706C107.25 19.6706 106.283 19.3482 105.638 18.5421C104.993 17.8973 104.509 16.93 104.509 15.9628ZM105.154 49.3332H111.928V24.6681H105.154V49.3332Z" fill="#182931"/>
<path d="M144.509 24.829V47.237C144.509 49.4939 144.187 51.4284 143.703 53.3632C143.219 55.1363 142.251 56.5871 141.122 57.8769C139.993 59.1666 138.38 60.1337 136.606 60.7788C134.671 61.4235 132.574 61.7458 130.155 61.7458C129.187 61.7458 128.058 61.5848 126.929 61.4235C125.8 61.2621 124.671 60.9398 123.542 60.6174C122.413 60.2951 121.284 59.8114 120.316 59.3276C119.349 58.8443 118.381 58.1992 117.574 57.5545L121.284 52.8795C122.413 54.0079 124.026 54.814 125.477 55.4587C127.09 56.1037 128.703 56.4261 130.155 56.4261C131.606 56.4261 132.896 56.2647 134.026 55.781C134.993 55.2977 135.961 54.814 136.606 54.0079C137.251 53.3632 137.735 52.3958 137.897 51.2674C138.219 50.1389 138.219 49.1715 138.219 47.8818V46.1086H138.058C137.09 47.3984 135.961 48.2044 134.509 48.8492C133.058 49.4939 131.445 49.8166 129.671 49.8166C127.736 49.8166 126.123 49.4939 124.51 48.6878C122.897 48.0431 121.607 47.076 120.478 45.9473C119.349 44.8188 118.542 43.5294 117.897 41.9173C117.252 40.4662 116.929 38.693 116.929 37.0809C116.929 35.3078 117.252 33.5343 117.736 32.0835C118.22 30.4714 119.187 29.1817 120.316 28.0532C121.446 26.9248 122.736 25.9575 124.348 25.3127C125.961 24.6678 127.574 24.1842 129.51 24.1842C131.445 24.1842 133.058 24.5066 134.671 25.3127C136.284 25.9575 137.413 27.2472 138.38 28.5368H138.542V24.829H144.509ZM130.639 28.8593C129.51 28.8593 128.542 29.0205 127.736 29.5041C126.929 29.9877 126.123 30.4714 125.477 31.2774C124.832 31.9222 124.348 32.8895 124.026 33.8567C123.703 34.8241 123.542 35.7911 123.542 36.9196C123.542 37.887 123.703 38.8544 124.026 39.8215C124.348 40.7889 124.832 41.5949 125.477 42.4007C126.123 43.0457 126.768 43.6904 127.736 44.1741C128.542 44.6578 129.51 44.8188 130.639 44.8188C131.768 44.8188 132.735 44.6578 133.542 44.1741C134.348 43.6904 135.155 43.2067 135.8 42.4007C136.445 41.7559 136.929 40.7889 137.251 39.8215C137.574 38.8544 137.735 37.887 137.735 36.9196C137.735 35.7911 137.574 34.8241 137.251 33.8567C136.929 32.8895 136.445 32.0835 135.8 31.2774C135.155 30.6326 134.348 29.9877 133.542 29.5041C132.735 29.0205 131.768 28.8593 130.639 28.8593Z" fill="#182931"/>
<path d="M150.965 24.186H156.771V28.2162H156.932C157.416 26.9266 158.384 25.7981 159.835 24.8308C161.126 23.8636 162.738 23.3799 164.674 23.3799C166.287 23.3799 167.577 23.7024 168.706 24.186C169.835 24.6696 170.802 25.6369 171.609 26.4429C172.254 27.4102 172.899 28.3774 173.222 29.6671C173.545 30.7956 173.706 32.0852 173.706 33.3749V49.1736H167.577V35.3095C167.577 34.5034 167.416 33.8587 167.416 33.0525C167.255 32.2464 167.093 31.4404 166.771 30.7956C166.448 30.1507 165.964 29.6671 165.319 29.1835C164.674 28.6998 163.867 28.5386 162.9 28.5386C161.932 28.5386 161.126 28.6998 160.319 29.1835C159.674 29.5059 159.029 30.1507 158.545 30.7956C158.061 31.4404 157.739 32.2464 157.416 33.0525C157.093 33.8587 157.093 34.6644 157.093 35.4705V49.3346H150.965V24.186Z" fill="#182931"/>
<path d="M196.118 46.2717H195.957C195.312 47.4001 194.344 48.3672 193.054 49.0122C191.763 49.8183 190.151 50.1407 188.376 50.1407C187.409 50.1407 186.28 49.9793 185.312 49.8183C184.183 49.4959 183.215 49.0122 182.409 48.5285C181.602 47.8838 180.796 47.0777 180.151 46.1103C179.506 45.1433 179.344 43.8535 179.344 42.4027C179.344 40.4682 179.828 39.0171 180.957 37.8887C182.086 36.7603 183.377 35.7929 184.989 35.3095C186.602 34.6644 188.376 34.3421 190.312 34.1811C192.247 34.0197 194.182 33.8584 196.118 33.8584V33.2137C196.118 31.6016 195.634 30.4731 194.505 29.6671C193.376 28.861 192.086 28.5386 190.473 28.5386C189.183 28.5386 187.892 28.861 186.763 29.3447C185.634 29.8283 184.506 30.6343 183.861 31.4404L180.635 27.5714C182.086 26.1205 183.699 25.1532 185.473 24.5084C187.409 23.8636 189.183 23.5411 190.957 23.5411C193.215 23.5411 194.989 23.8636 196.279 24.5084C197.731 25.1532 198.699 25.9593 199.666 26.9265C200.473 27.8938 201.118 29.1834 201.279 30.3119C201.602 31.6016 201.763 32.8913 201.763 34.0197V49.4959H196.118V46.2717ZM195.634 37.8887H194.344C193.376 37.8887 192.409 37.8887 191.28 38.05C190.312 38.211 189.183 38.3724 188.376 38.5337C187.57 38.8561 186.763 39.3395 186.118 39.8232C185.473 40.3069 185.312 41.1129 185.312 42.08C185.312 42.7251 185.473 43.2088 185.634 43.5311C185.957 43.8535 186.28 44.3372 186.602 44.4982C187.086 44.8209 187.409 44.9819 187.892 44.9819C188.376 45.1433 188.86 45.1433 189.344 45.1433C191.441 45.1433 192.892 44.6596 194.021 43.3698C194.989 42.2414 195.634 40.6292 195.634 38.6948V37.8887Z" fill="#182931"/>
<path d="M215.473 10.3158H209.022V49.4895H215.473V10.3158Z" fill="#182931"/>
<path d="M255.15 19.6723C254.504 18.705 253.375 18.0602 252.246 17.4154C250.956 16.7705 249.666 16.4481 248.376 16.4481C247.731 16.4481 246.763 16.6093 246.118 16.7705C245.472 16.9317 244.666 17.2542 244.021 17.7378C243.376 18.0602 242.892 18.705 242.408 19.3499C242.086 19.9947 241.763 20.8007 241.763 21.768C241.763 22.574 241.924 23.3801 242.247 24.0249C242.57 24.6698 243.053 25.1534 243.698 25.637C244.344 26.1206 244.989 26.4431 245.795 26.7655C246.763 27.0879 247.569 27.4103 248.698 27.7327C249.827 28.0552 251.118 28.5388 252.408 29.0224C253.698 29.506 254.827 30.1509 255.956 30.9569C257.085 31.763 257.892 32.7302 258.537 34.02C259.182 35.1485 259.504 36.7606 259.504 38.5337C259.504 40.4682 259.182 42.2417 258.376 43.6924C257.73 45.1432 256.601 46.433 255.472 47.4001C254.343 48.3675 252.892 49.1735 251.279 49.6572C249.666 50.1406 247.892 50.4633 246.118 50.4633C243.698 50.4633 241.441 49.9796 239.021 49.0122C236.763 48.0451 234.828 46.7554 233.376 45.1432L238.053 40.7906C239.021 42.0803 240.15 43.0477 241.602 43.8538C243.215 44.6595 244.666 44.9822 246.118 44.9822C246.763 44.9822 247.731 44.8209 248.537 44.6595C249.344 44.4985 250.15 44.1762 250.634 43.6924C251.279 43.2087 251.763 42.725 252.246 41.919C252.569 41.2743 252.892 40.3072 252.892 39.3398C252.892 38.3724 252.73 37.5666 252.246 36.9216C251.763 36.2769 251.118 35.7932 250.473 35.3095C249.827 34.8261 248.86 34.3424 247.731 34.02C246.763 33.6973 245.634 33.2138 244.505 32.8914C243.376 32.569 242.247 32.0854 241.118 31.6017C239.989 31.1181 239.021 30.4733 238.053 29.6673C237.086 28.8612 236.441 27.894 235.957 26.7655C235.473 25.637 235.151 24.1861 235.151 22.4128C235.151 20.4783 235.473 18.8662 236.279 17.5766C237.086 16.1257 238.053 15.1584 239.344 14.1912C240.634 13.2239 242.086 12.5791 243.698 12.2567C245.311 11.773 246.924 11.6118 248.537 11.6118C250.473 11.6118 252.408 11.9342 254.182 12.5791C256.117 13.2239 257.73 14.1912 259.182 15.6421L255.15 19.6723Z" fill="#182931"/>
<path d="M281.919 31.118C281.435 30.3119 280.79 29.8283 279.822 29.3447C278.855 28.8611 277.887 28.5386 276.919 28.5386C275.79 28.5386 274.822 28.8611 274.016 29.3447C273.048 29.8283 272.403 30.4731 271.919 31.118C271.435 31.924 270.952 32.7301 270.629 33.6973C270.306 34.6647 270.145 35.6318 270.145 36.5992C270.145 37.5663 270.306 38.5337 270.629 39.5008C270.952 40.4682 271.274 41.2743 271.919 42.0803C272.564 42.8864 273.21 43.5311 274.016 43.8535C274.983 44.3372 275.951 44.6595 277.08 44.6595C278.048 44.6595 279.016 44.4982 279.984 44.1758C280.951 43.8535 281.758 43.2087 282.241 42.5637L286.112 46.594C285.144 47.7224 283.854 48.6898 282.241 49.1735C280.629 49.8183 279.016 50.1406 277.08 50.1406C275.306 50.1406 273.532 49.8183 271.919 49.1735C270.306 48.5285 268.855 47.7224 267.564 46.433C266.274 45.3042 265.468 43.8535 264.662 42.2413C264.016 40.6292 263.532 38.6947 263.532 36.5992C263.532 34.5034 263.855 32.7301 264.662 31.118C265.307 29.5059 266.274 28.055 267.564 26.9265C268.693 25.7981 270.145 24.8308 271.758 24.186C273.371 23.5411 274.983 23.2188 276.919 23.2188C278.693 23.2188 280.467 23.5411 282.241 24.3472C284.015 25.1532 285.306 25.9593 286.274 27.249L281.919 31.118Z" fill="#182931"/>
<path d="M291.122 15.9628C291.122 14.9955 291.445 14.1895 292.251 13.3834C292.896 12.7386 294.025 12.2549 294.993 12.2549C296.122 12.2549 297.09 12.5774 297.896 13.3834C298.702 14.0282 299.025 14.9955 299.025 15.9628C299.025 16.93 298.702 17.8973 297.896 18.5421C297.09 19.187 296.122 19.6706 294.993 19.6706C293.864 19.6706 292.896 19.3482 292.251 18.5421C291.445 17.8973 291.122 16.93 291.122 15.9628ZM291.606 49.3332H298.38V24.6681H291.606V49.3332Z" fill="#182931"/>
<path d="M329.51 37.0813V37.8873C329.51 38.2097 329.51 38.3707 329.349 38.6934H310.156C310.317 39.6605 310.479 40.4665 310.963 41.1112C311.285 41.9173 311.93 42.5623 312.575 43.0461C313.22 43.5294 314.027 44.0131 314.833 44.3355C315.64 44.6578 316.607 44.8192 317.414 44.8192C319.027 44.8192 320.317 44.4968 321.446 44.0131C322.575 43.5294 323.381 42.5623 324.027 41.5949L328.22 44.9805C325.801 48.3658 322.091 49.9779 317.414 49.9779C315.478 49.9779 313.704 49.6556 312.092 49.0105C310.479 48.3658 309.027 47.5597 307.737 46.4313C306.608 45.3029 305.479 44.0131 304.834 42.24C304.189 40.6279 303.866 38.6934 303.866 36.5975C303.866 34.6631 304.189 32.7285 304.834 30.9552C305.479 29.3431 306.446 27.8922 307.737 26.6025C308.866 25.4741 310.317 24.5068 311.93 23.862C313.543 23.2171 315.317 22.8947 317.253 22.8947C319.027 22.8947 320.64 23.2171 322.091 23.7008C323.543 24.1844 324.833 25.1517 325.962 26.2801C327.091 27.4086 327.898 28.8595 328.543 30.6328C329.188 32.8897 329.51 34.8241 329.51 37.0813ZM322.736 34.1794C322.736 33.3733 322.575 32.5673 322.414 31.9225C322.252 31.1164 321.93 30.6328 321.285 29.9879C320.801 29.5043 320.156 29.0207 319.511 28.6983C318.704 28.3758 317.898 28.2146 316.93 28.2146C314.995 28.2146 313.382 28.6983 312.092 29.9879C310.801 31.1164 310.156 32.5673 309.834 34.3407L322.736 34.1794Z" fill="#182931"/>
<path d="M335.316 24.186H341.121V28.2162H341.283C341.768 26.9266 342.735 25.7981 344.188 24.8308C345.475 23.8636 347.089 23.3799 349.024 23.3799C350.638 23.3799 351.929 23.7024 353.058 24.186C354.187 24.6696 355.154 25.6369 355.959 26.4429C356.606 27.4102 357.25 28.3774 357.573 29.6671C357.897 30.7956 358.055 32.0852 358.055 33.3749V49.1736H351.929V35.3095C351.929 34.5034 351.767 33.8587 351.767 33.0525C351.605 32.2464 351.443 31.4404 351.123 30.7956C350.8 30.1507 350.314 29.6671 349.671 29.1835C349.024 28.6998 348.218 28.5386 347.251 28.5386C346.284 28.5386 345.475 28.6998 344.67 29.1835C344.026 29.5059 343.379 30.1507 342.897 30.7956C342.412 31.4404 342.088 32.2464 341.768 33.0525C341.445 33.8587 341.445 34.6644 341.445 35.4705V49.3346H335.316V24.186Z" fill="#182931"/>
<path d="M381.275 31.118C380.789 30.3119 380.146 29.8283 379.178 29.3447C378.211 28.8611 377.241 28.5386 376.273 28.5386C375.145 28.5386 374.177 28.8611 373.372 29.3447C372.405 29.8283 371.758 30.4731 371.276 31.118C370.79 31.924 370.305 32.7301 369.985 33.6973C369.662 34.6647 369.5 35.6318 369.5 36.5992C369.5 37.5663 369.662 38.5337 369.985 39.5008C370.305 40.4682 370.629 41.2743 371.276 42.0803C371.919 42.8864 372.563 43.5311 373.372 43.8535C374.339 44.3372 375.306 44.6595 376.435 44.6595C377.402 44.6595 378.37 44.4982 379.34 44.1758C380.307 43.8535 381.113 43.2087 381.598 42.5637L385.467 46.594C384.338 47.7224 383.209 48.6898 381.598 49.1735C379.984 49.8183 378.37 50.1406 376.435 50.1406C374.663 50.1406 372.887 49.8183 371.276 49.1735C369.662 48.5285 368.209 47.7224 366.918 46.433C365.631 45.3042 364.822 43.8535 364.017 42.2413C363.373 40.6292 362.888 38.6947 362.888 36.5992C362.888 34.5034 363.211 32.7301 364.017 31.118C364.66 29.5059 365.789 28.055 366.918 26.9265C368.047 25.7981 369.5 24.8308 371.114 24.186C372.725 23.5411 374.339 23.2188 376.273 23.2188C378.049 23.2188 379.822 23.5411 381.598 24.3472C383.371 25.1532 384.661 25.9593 385.629 27.249L381.275 31.118Z" fill="#182931"/>
<path d="M413.697 37.0813V37.8873C413.697 38.2097 413.697 38.3707 413.536 38.6934H394.343C394.505 39.6605 394.667 40.4665 395.152 41.1112C395.472 41.9173 396.119 42.5623 396.763 43.0461C397.41 43.5294 398.216 44.0131 399.021 44.3355C399.826 44.6578 400.797 44.8192 401.602 44.8192C403.213 44.8192 404.504 44.4968 405.633 44.0131C406.762 43.5294 407.571 42.5623 408.214 41.5949L412.407 44.9805C409.99 48.3658 406.28 49.9779 401.602 49.9779C399.668 49.9779 397.892 49.6556 396.281 49.0105C394.667 48.3658 393.214 47.5597 391.924 46.4313C390.795 45.3029 389.666 44.0131 389.022 42.24C388.375 40.6279 388.055 38.6934 388.055 36.5975C388.055 34.6631 388.375 32.7285 389.022 30.9552C389.666 29.3431 390.633 27.8922 391.924 26.6025C393.053 25.4741 394.505 24.5068 396.119 23.862C397.73 23.2171 399.506 22.8947 401.441 22.8947C403.213 22.8947 404.827 23.2171 406.28 23.7008C407.732 24.1844 409.02 25.1517 410.149 26.2801C411.278 27.4086 412.086 28.8595 412.73 30.6328C413.377 32.8897 413.697 34.8241 413.697 37.0813ZM407.409 34.1794C407.409 33.3733 407.247 32.5673 407.085 31.9225C406.924 31.1164 406.6 30.6328 405.956 29.9879C405.471 29.5043 404.827 29.0207 404.184 28.6983C403.375 28.3758 402.57 28.2146 401.602 28.2146C399.668 28.2146 398.054 28.6983 396.763 29.9879C395.472 31.1164 394.829 32.5673 394.505 34.3407L407.409 34.1794Z" fill="#182931"/>
<path d="M434.342 30.7956C433.857 29.9895 433.051 29.3447 432.084 28.861C431.117 28.3774 430.15 28.055 429.021 28.055C428.05 28.055 427.083 28.2162 426.278 28.6998C425.472 29.1835 424.987 29.8283 424.987 30.7956C424.987 31.7628 425.472 32.4076 426.278 32.8913C427.245 33.2137 428.535 33.6974 430.308 34.1811C431.279 34.3421 432.246 34.6644 433.051 34.9871C434.018 35.3095 434.827 35.7932 435.633 36.4379C436.438 36.9216 437.085 37.7277 437.567 38.6947C438.052 39.5008 438.214 40.6292 438.214 41.7576C438.214 43.3698 437.891 44.6595 437.243 45.6269C436.762 46.7554 435.956 47.5614 434.986 48.2061C434.018 48.8509 432.889 49.3346 431.761 49.6569C430.47 49.9793 429.341 50.1406 427.892 50.1406C425.954 50.1406 424.181 49.8183 422.244 49.0122C420.471 48.2061 419.019 47.2387 417.728 45.9493L421.762 42.0803C422.405 43.0474 423.376 43.6921 424.505 44.3372C425.634 44.9819 426.763 45.3043 428.212 45.3043C428.697 45.3043 429.179 45.1432 429.503 45.1432C429.988 44.9819 430.308 44.8209 430.793 44.6595C431.117 44.4982 431.437 44.1758 431.761 43.6921C432.084 43.3698 432.084 42.8861 432.084 42.2413C432.084 41.1129 431.599 40.4682 430.632 39.9845C429.664 39.5008 428.374 39.0171 426.439 38.5337C425.634 38.3724 424.663 38.05 423.696 37.7277C422.729 37.405 422.085 36.9216 421.438 36.4379C420.795 35.9542 420.148 35.3095 419.827 34.5034C419.342 33.6974 419.18 32.7301 419.18 31.4404C419.18 29.9895 419.504 28.861 419.986 27.7326C420.471 26.7653 421.276 25.9593 422.244 25.3145C423.052 24.6696 424.181 24.186 425.31 23.8636C426.439 23.5412 427.568 23.3799 428.859 23.3799C430.632 23.3799 432.246 23.7024 434.018 24.3472C435.633 24.992 437.085 25.9593 438.052 27.2489L434.342 30.7956Z" fill="#182931"/>
<path d="M53.224 9.18892C52.9015 9.02771 49.8368 7.41561 45.6436 5.48109L41.4503 9.67256C44.3532 10.9622 47.095 12.2519 49.0304 13.2191C48.5468 19.8287 46.1275 34.4987 43.5467 42.5593C41.7728 48.2014 32.257 54.8109 27.4184 57.5515C25.6442 56.5844 23.3863 55.1336 21.1283 53.3602L41.1278 33.2091C44.3532 29.9849 44.3532 24.8262 41.1278 21.602C37.902 18.3778 32.7408 18.3778 29.5151 21.602L21.2896 29.8237C20.1606 30.9522 18.5477 30.9522 17.4187 29.8237C16.9349 29.3401 16.6123 28.6952 16.6123 27.8892C16.6123 27.0831 16.9349 26.4383 17.4187 25.9547L35.9666 7.41561L40.1599 3.06297C35.6438 1.45088 30.9667 0 27.2571 0C17.9026 0 2.0967 8.70528 1.45156 9.02771L0 9.83377V11.4458C0 17.5718 3.06441 35.3048 5.96752 44.0101C6.61267 45.9446 7.74165 47.8791 9.19321 49.4912L13.0641 45.6222C12.2577 44.4938 11.4512 43.3654 11.1286 42.2366C8.54809 34.1763 5.96752 19.5063 5.64498 12.8967C10.8061 10.4786 21.4509 5.48109 27.4184 5.48109C28.2248 5.48109 29.0312 5.64231 29.8377 5.80352L13.7092 22.0856C12.0964 23.6977 11.2899 25.7934 11.2899 27.8892C11.2899 29.9849 12.0964 32.2418 13.7092 33.6926C16.9349 36.9169 22.096 36.9169 25.3217 33.6926L33.5472 25.471C34.6762 24.3426 36.2891 24.3426 37.4181 25.471C37.902 25.9547 38.2245 26.5995 38.2245 27.4055C38.2245 28.2116 37.902 28.8564 37.4181 29.3401L12.9028 53.8439C18.3865 58.8413 24.8378 62.5492 25.9668 63.1939L27.2571 64L28.5474 63.1939C44.9985 54.1662 48.3854 45.2999 48.5468 44.1715C51.4497 35.3048 54.5144 17.733 54.5144 11.607V9.99495L53.224 9.18892Z" fill="#FA6B0A"/>
</svg>
