<svg width="64" height="64" viewBox="0 0 64 64" fill="none" xmlns="http://www.w3.org/2000/svg">
<path d="M55.5392 9.18892C55.233 9.02771 52.3229 7.41561 48.3411 5.48109L44.3594 9.67256C47.1158 10.9622 49.7194 12.2519 51.5571 13.2191C51.0979 19.8287 48.8006 34.4987 46.3501 42.5593C44.6656 48.2014 35.6298 54.8109 31.0353 57.5515C29.3507 56.5844 27.2066 55.1336 25.0625 53.3602L44.0531 33.2091C47.1158 29.9849 47.1158 24.8262 44.0531 21.602C40.9901 18.3778 36.0892 18.3778 33.0262 21.602L25.2156 29.8237C24.1436 30.9522 22.6121 30.9522 21.5401 29.8237C21.0806 29.3401 20.7743 28.6952 20.7743 27.8892C20.7743 27.0831 21.0806 26.4383 21.5401 25.9547L39.1523 7.41561L43.1341 3.06297C38.8458 1.45088 34.4046 0 30.8821 0C21.9995 0 6.99093 8.70528 6.37834 9.02771L5 9.83377V11.4458C5 17.5718 7.90983 35.3048 10.6665 44.0101C11.2791 45.9446 12.3511 47.8791 13.7295 49.4912L17.4051 45.6222C16.6393 44.4938 15.8736 43.3654 15.5673 42.2366C13.1169 34.1763 10.6665 19.5063 10.3602 12.8967C15.261 10.4786 25.3688 5.48109 31.0353 5.48109C31.8011 5.48109 32.5668 5.64231 33.3325 5.80352L18.0177 22.0856C16.4862 23.6977 15.7204 25.7934 15.7204 27.8892C15.7204 29.9849 16.4862 32.2418 18.0177 33.6926C21.0806 36.9169 25.9814 36.9169 29.0444 33.6926L36.855 25.471C37.927 24.3426 39.4586 24.3426 40.5306 25.471C40.9901 25.9547 41.2963 26.5995 41.2963 27.4055C41.2963 28.2116 40.9901 28.8564 40.5306 29.3401L17.2519 53.8439C22.459 58.8413 28.5849 62.5492 29.657 63.1939L30.8821 64L32.1074 63.1939C47.7286 54.1662 50.9446 45.2999 51.0979 44.1715C53.8544 35.3048 56.7645 17.733 56.7645 11.607V9.99495L55.5392 9.18892Z" fill="#FA6B0A"/>
</svg>
