<svg width="20" height="20" viewBox="0 0 20 20" fill="none" xmlns="http://www.w3.org/2000/svg">
<mask id="mask0_133_38069" style="mask-type:alpha" maskUnits="userSpaceOnUse" x="0" y="0" width="20" height="20">
<rect width="20" height="20" fill="#D9D9D9"/>
</mask>
<g mask="url(#mask0_133_38069)">
<path d="M10.0002 10.0007C9.0835 10.0007 8.29877 9.67426 7.646 9.02148C6.99322 8.36871 6.66683 7.58398 6.66683 6.66732C6.66683 5.75065 6.99322 4.96593 7.646 4.31315C8.29877 3.66037 9.0835 3.33398 10.0002 3.33398C10.9168 3.33398 11.7016 3.66037 12.3543 4.31315C13.0071 4.96593 13.3335 5.75065 13.3335 6.66732C13.3335 7.58398 13.0071 8.36871 12.3543 9.02148C11.7016 9.67426 10.9168 10.0007 10.0002 10.0007ZM3.3335 16.6673V14.334C3.3335 13.8618 3.45516 13.4276 3.6985 13.0315C3.94127 12.6359 4.26405 12.334 4.66683 12.1257C5.52794 11.6951 6.40294 11.372 7.29183 11.1565C8.18072 10.9415 9.0835 10.834 10.0002 10.834C10.9168 10.834 11.8196 10.9415 12.7085 11.1565C13.5974 11.372 14.4724 11.6951 15.3335 12.1257C15.7363 12.334 16.0591 12.6359 16.3018 13.0315C16.5452 13.4276 16.6668 13.8618 16.6668 14.334V16.6673H3.3335ZM5.00016 15.0007H15.0002V14.334C15.0002 14.1812 14.9621 14.0423 14.886 13.9173C14.8093 13.7923 14.7085 13.6951 14.5835 13.6257C13.8335 13.2507 13.0766 12.9693 12.3127 12.7815C11.5488 12.5943 10.7779 12.5007 10.0002 12.5007C9.22238 12.5007 8.45155 12.5943 7.68766 12.7815C6.92377 12.9693 6.16683 13.2507 5.41683 13.6257C5.29183 13.6951 5.19127 13.7923 5.11516 13.9173C5.0385 14.0423 5.00016 14.1812 5.00016 14.334V15.0007ZM10.0002 8.33398C10.4585 8.33398 10.851 8.17065 11.1777 7.84398C11.5038 7.51787 11.6668 7.12565 11.6668 6.66732C11.6668 6.20898 11.5038 5.81676 11.1777 5.49065C10.851 5.16398 10.4585 5.00065 10.0002 5.00065C9.54183 5.00065 9.14961 5.16398 8.8235 5.49065C8.49683 5.81676 8.3335 6.20898 8.3335 6.66732C8.3335 7.12565 8.49683 7.51787 8.8235 7.84398C9.14961 8.17065 9.54183 8.33398 10.0002 8.33398Z" fill="#3A4245"/>
</g>
</svg>
