<svg width="20" height="20" viewBox="0 0 20 20" fill="none" xmlns="http://www.w3.org/2000/svg">
<mask id="mask0_133_38060" style="mask-type:alpha" maskUnits="userSpaceOnUse" x="0" y="0" width="20" height="20">
<rect width="20" height="20" fill="#D9D9D9"/>
</mask>
<g mask="url(#mask0_133_38060)">
<path d="M5 18.3327C4.30556 18.3327 3.71528 18.0896 3.22917 17.6035C2.74306 17.1174 2.5 16.5271 2.5 15.8327V13.3327H5V1.66602L6.25 2.91602L7.5 1.66602L8.75 2.91602L10 1.66602L11.25 2.91602L12.5 1.66602L13.75 2.91602L15 1.66602L16.25 2.91602L17.5 1.66602V15.8327C17.5 16.5271 17.2569 17.1174 16.7708 17.6035C16.2847 18.0896 15.6944 18.3327 15 18.3327H5ZM15 16.666C15.2361 16.666 15.4339 16.586 15.5933 16.426C15.7533 16.2666 15.8333 16.0688 15.8333 15.8327V4.16602H6.66667V13.3327H14.1667V15.8327C14.1667 16.0688 14.2467 16.2666 14.4067 16.426C14.5661 16.586 14.7639 16.666 15 16.666ZM7.5 7.49935V5.83268H12.5V7.49935H7.5ZM7.5 9.99935V8.33268H12.5V9.99935H7.5ZM14.1667 7.49935C13.9306 7.49935 13.7328 7.41935 13.5733 7.25935C13.4133 7.0999 13.3333 6.90213 13.3333 6.66602C13.3333 6.4299 13.4133 6.23185 13.5733 6.07185C13.7328 5.9124 13.9306 5.83268 14.1667 5.83268C14.4028 5.83268 14.6006 5.9124 14.76 6.07185C14.92 6.23185 15 6.4299 15 6.66602C15 6.90213 14.92 7.0999 14.76 7.25935C14.6006 7.41935 14.4028 7.49935 14.1667 7.49935ZM14.1667 9.99935C13.9306 9.99935 13.7328 9.91935 13.5733 9.75935C13.4133 9.5999 13.3333 9.40213 13.3333 9.16602C13.3333 8.9299 13.4133 8.73185 13.5733 8.57185C13.7328 8.4124 13.9306 8.33268 14.1667 8.33268C14.4028 8.33268 14.6006 8.4124 14.76 8.57185C14.92 8.73185 15 8.9299 15 9.16602C15 9.40213 14.92 9.5999 14.76 9.75935C14.6006 9.91935 14.4028 9.99935 14.1667 9.99935ZM5 16.666H12.5V14.9993H4.16667V15.8327C4.16667 16.0688 4.24639 16.2666 4.40583 16.426C4.56583 16.586 4.76389 16.666 5 16.666Z" fill="#3A4245"/>
</g>
</svg>
