<svg width="20" height="20" viewBox="0 0 20 20" fill="none" xmlns="http://www.w3.org/2000/svg">
<mask id="mask0_119_38010" style="mask-type:alpha" maskUnits="userSpaceOnUse" x="0" y="0" width="20" height="20">
<rect width="20" height="20" fill="#D9D9D9"/>
</mask>
<g mask="url(#mask0_119_38010)">
<path d="M3.33317 17.5C2.87484 17.5 2.48262 17.3369 2.1565 17.0108C1.82984 16.6842 1.6665 16.2917 1.6665 15.8333V4.16667C1.6665 3.70833 1.82984 3.31583 2.1565 2.98917C2.48262 2.66306 2.87484 2.5 3.33317 2.5H14.9998C15.4582 2.5 15.8507 2.66306 16.1773 2.98917C16.5034 3.31583 16.6665 3.70833 16.6665 4.16667V5.83333H18.3332V7.5H16.6665V9.16667H18.3332V10.8333H16.6665V12.5H18.3332V14.1667H16.6665V15.8333C16.6665 16.2917 16.5034 16.6842 16.1773 17.0108C15.8507 17.3369 15.4582 17.5 14.9998 17.5H3.33317ZM3.33317 15.8333H14.9998V4.16667H3.33317V15.8333ZM4.99984 14.1667H9.1665V10.8333H4.99984V14.1667ZM9.99984 8.33333H13.3332V5.83333H9.99984V8.33333ZM4.99984 10H9.1665V5.83333H4.99984V10ZM9.99984 14.1667H13.3332V9.16667H9.99984V14.1667Z" fill="#3A4245"/>
</g>
</svg>
