<svg width="20" height="20" viewBox="0 0 20 20" fill="none" xmlns="http://www.w3.org/2000/svg">
<mask id="mask0_133_38063" style="mask-type:alpha" maskUnits="userSpaceOnUse" x="0" y="0" width="20" height="20">
<rect width="20" height="20" fill="#D9D9D9"/>
</mask>
<g mask="url(#mask0_133_38063)">
<path d="M9.99984 0.833984L17.5415 5.33398C17.7915 5.48676 17.9859 5.6951 18.1248 5.95898C18.2637 6.22287 18.3332 6.50065 18.3332 6.79232V15.834C18.3332 16.2923 18.1701 16.6848 17.844 17.0115C17.5173 17.3376 17.1248 17.5007 16.6665 17.5007H3.33317C2.87484 17.5007 2.48262 17.3376 2.1565 17.0115C1.82984 16.6848 1.6665 16.2923 1.6665 15.834V6.79232C1.6665 6.50065 1.73595 6.22287 1.87484 5.95898C2.01373 5.6951 2.20817 5.48676 2.45817 5.33398L9.99984 0.833984ZM9.99984 10.5423L16.4998 6.66732L9.99984 2.79232L3.49984 6.66732L9.99984 10.5423ZM9.99984 12.5007L3.33317 8.50065V15.834H16.6665V8.50065L9.99984 12.5007Z" fill="#3A4245"/>
</g>
</svg>
