<svg width="24" height="24" viewBox="0 0 24 24" fill="none" xmlns="http://www.w3.org/2000/svg">
<g clip-path="url(#clip0_119_37929)">
<path d="M13.4814 3.04672V1.3025H14.1043V0H8.93959V1.3025H9.56253V3.05805C4.69231 3.98679 1 8.27938 1 13.4328C1 19.2657 5.73431 24 11.5672 24C17.4002 24 22.1345 19.2657 22.1345 13.4328C22.1345 8.25672 18.4082 3.94148 13.4814 3.04672ZM11.8617 18.858V18.2463H11.2501V18.8466C8.49788 18.6881 6.30061 16.4681 6.15337 13.7159H6.76498V13.1043H6.1647C6.32327 10.3634 8.52053 8.17744 11.2614 8.00755V8.60783H11.8731V7.99622C14.6366 8.14346 16.8565 10.3521 17.0038 13.1156H16.3922V13.7272H17.0038C16.8339 16.5021 14.6253 18.722 11.8617 18.858Z" fill="#FF282D"/>
<path d="M13.7872 10.8516L11.9071 12.4939C11.556 12.3693 11.1482 12.4485 10.8651 12.7317C10.4686 13.1281 10.4686 13.7624 10.8651 14.1475C11.2615 14.5439 11.8957 14.5439 12.2808 14.1475C12.564 13.8643 12.6433 13.4566 12.5187 13.1055L14.1836 11.248L13.7872 10.8516Z" fill="#FF282D"/>
</g>
<defs>
<clipPath id="clip0_119_37929">
<rect width="21.1345" height="24" fill="white" transform="translate(1)"/>
</clipPath>
</defs>
</svg>
