<svg width="20" height="20" viewBox="0 0 20 20" fill="none" xmlns="http://www.w3.org/2000/svg">
<mask id="mask0_119_38013" style="mask-type:alpha" maskUnits="userSpaceOnUse" x="0" y="0" width="20" height="20">
<rect width="20" height="20" fill="#D9D9D9"/>
</mask>
<g mask="url(#mask0_119_38013)">
<path d="M3.41699 16.666C2.95833 16.666 2.55199 16.4887 2.19799 16.134C1.84399 15.78 1.66699 15.374 1.66699 14.916V5.08203C1.66699 4.62403 1.84399 4.21803 2.19799 3.86403C2.55199 3.50936 2.95833 3.33203 3.41699 3.33203H8.24999L9.91699 4.99903H16.667C17.125 4.99903 17.5173 5.17603 17.844 5.53003C18.17 5.88403 18.333 6.29036 18.333 6.74903H9.18799L7.52099 5.08203H3.41699V14.916L5.43799 8.49903H19.583L17.396 15.478C17.2847 15.8394 17.0867 16.1277 16.802 16.343C16.5173 16.5584 16.1943 16.666 15.833 16.666H3.41699ZM5.24999 14.916H15.75L17.25 10.166H6.74999L5.24999 14.916Z" fill="#3A4245"/>
</g>
</svg>
