<svg width="20" height="20" viewBox="0 0 20 20" fill="none" xmlns="http://www.w3.org/2000/svg">
<mask id="mask0_119_38011" style="mask-type:alpha" maskUnits="userSpaceOnUse" x="0" y="0" width="20" height="20">
<rect width="20" height="20" fill="#D9D9D9"/>
</mask>
<g mask="url(#mask0_119_38011)">
<path d="M10.0002 18.3346C8.06961 17.8485 6.476 16.7407 5.21933 15.0113C3.96211 13.2824 3.3335 11.3624 3.3335 9.2513V4.16797L10.0002 1.66797L16.6668 4.16797V9.2513C16.6668 11.3624 16.0385 13.2824 14.7818 15.0113C13.5246 16.7407 11.9307 17.8485 10.0002 18.3346ZM10.0002 16.5846C11.4446 16.1263 12.6391 15.2096 13.5835 13.8346C14.5279 12.4596 15.0002 10.9319 15.0002 9.2513V5.3138L10.0002 3.4388L5.00016 5.3138V9.2513C5.00016 10.9319 5.47238 12.4596 6.41683 13.8346C7.36127 15.2096 8.55572 16.1263 10.0002 16.5846Z" fill="#3A4245"/>
</g>
</svg>
