<svg width="20" height="20" viewBox="0 0 20 20" fill="none" xmlns="http://www.w3.org/2000/svg">
<mask id="mask0_119_37943" style="mask-type:alpha" maskUnits="userSpaceOnUse" x="0" y="0" width="20" height="20">
<rect width="20" height="20" fill="#D9D9D9"/>
</mask>
<g mask="url(#mask0_119_37943)">
<path d="M7.5 13.7513C6.91667 13.7513 6.42361 13.5499 6.02083 13.1471C5.61806 12.7444 5.41667 12.2513 5.41667 11.668C5.41667 11.0846 5.61806 10.5916 6.02083 10.1888C6.42361 9.78602 6.91667 9.58464 7.5 9.58464C8.08333 9.58464 8.57639 9.78602 8.97917 10.1888C9.38194 10.5916 9.58333 11.0846 9.58333 11.668C9.58333 12.2513 9.38194 12.7444 8.97917 13.1471C8.57639 13.5499 8.08333 13.7513 7.5 13.7513ZM4.16667 18.3346C3.70833 18.3346 3.31583 18.1716 2.98917 17.8455C2.66306 17.5188 2.5 17.1263 2.5 16.668V5.0013C2.5 4.54297 2.66306 4.15075 2.98917 3.82464C3.31583 3.49797 3.70833 3.33464 4.16667 3.33464H5V1.66797H6.66667V3.33464H13.3333V1.66797H15V3.33464H15.8333C16.2917 3.33464 16.6842 3.49797 17.0108 3.82464C17.3369 4.15075 17.5 4.54297 17.5 5.0013V16.668C17.5 17.1263 17.3369 17.5188 17.0108 17.8455C16.6842 18.1716 16.2917 18.3346 15.8333 18.3346H4.16667ZM4.16667 16.668H15.8333V8.33464H4.16667V16.668ZM4.16667 6.66797H15.8333V5.0013H4.16667V6.66797Z" fill="#3A4245"/>
</g>
</svg>
