<svg width="20" height="20" viewBox="0 0 20 20" fill="none" xmlns="http://www.w3.org/2000/svg">
<mask id="mask0_119_37947" style="mask-type:alpha" maskUnits="userSpaceOnUse" x="0" y="0" width="20" height="20">
<rect width="20" height="20" fill="#D9D9D9"/>
</mask>
<g mask="url(#mask0_119_37947)">
<path d="M2.18754 15.1471L0.833374 14.168L5.00004 7.5013L7.50004 10.418L10.8334 5.0013L13.1042 8.39714C12.7848 8.41102 12.4825 8.44908 12.1975 8.5113C11.9131 8.57408 11.632 8.66102 11.3542 8.77213L10.8959 8.08464L7.72921 13.2305L5.20837 10.293L2.18754 15.1471ZM17.9792 19.168L15.375 16.5638C15.0973 16.7582 14.7881 16.9041 14.4475 17.0013C14.1075 17.0985 13.757 17.1471 13.3959 17.1471C12.3542 17.1471 11.4689 16.7824 10.74 16.053C10.0106 15.3241 9.64587 14.4388 9.64587 13.3971C9.64587 12.3555 10.0106 11.4699 10.74 10.7405C11.4689 10.0116 12.3542 9.64714 13.3959 9.64714C14.4375 9.64714 15.3231 10.0116 16.0525 10.7405C16.7814 11.4699 17.1459 12.3555 17.1459 13.3971C17.1459 13.7582 17.0973 14.1088 17 14.4488C16.9028 14.7894 16.757 15.1055 16.5625 15.3971L19.1667 17.9805L17.9792 19.168ZM13.3959 15.4805C13.9792 15.4805 14.4723 15.2791 14.875 14.8763C15.2778 14.4735 15.4792 13.9805 15.4792 13.3971C15.4792 12.8138 15.2778 12.3207 14.875 11.918C14.4723 11.5152 13.9792 11.3138 13.3959 11.3138C12.8125 11.3138 12.3195 11.5152 11.9167 11.918C11.5139 12.3207 11.3125 12.8138 11.3125 13.3971C11.3125 13.9805 11.5139 14.4735 11.9167 14.8763C12.3195 15.2791 12.8125 15.4805 13.3959 15.4805ZM15.25 8.8138C14.9862 8.70269 14.7117 8.61241 14.4267 8.54297C14.1423 8.47352 13.8473 8.43186 13.5417 8.41797L17.8125 1.66797L19.1667 2.64714L15.25 8.8138Z" fill="#3A4245"/>
</g>
</svg>
