<svg width="20" height="20" viewBox="0 0 20 20" fill="none" xmlns="http://www.w3.org/2000/svg">
<mask id="mask0_119_37944" style="mask-type:alpha" maskUnits="userSpaceOnUse" x="0" y="0" width="20" height="20">
<rect width="20" height="20" fill="#D9D9D9"/>
</mask>
<g mask="url(#mask0_119_37944)">
<path d="M10 17.5C8.97222 17.5 8.00333 17.3022 7.09333 16.9067C6.18389 16.5106 5.38889 15.9722 4.70833 15.2917C4.02778 14.6111 3.48944 13.8161 3.09333 12.9067C2.69778 11.9967 2.5 11.0278 2.5 10C2.5 9.38889 2.56944 8.795 2.70833 8.21833C2.84722 7.64222 3.04861 7.10056 3.3125 6.59333C3.57639 6.08667 3.8925 5.61472 4.26083 5.1775C4.62861 4.73972 5.04167 4.34722 5.5 4L11.1667 9.66667L10 10.8333L5.5 6.33333C5.08333 6.83333 4.75694 7.3925 4.52083 8.01083C4.28472 8.62861 4.16667 9.29167 4.16667 10C4.16667 11.6111 4.73611 12.9861 5.875 14.125C7.01389 15.2639 8.38889 15.8333 10 15.8333C11.6111 15.8333 12.9861 15.2639 14.125 14.125C15.2639 12.9861 15.8333 11.6111 15.8333 10C15.8333 8.51389 15.3578 7.2325 14.4067 6.15583C13.455 5.07972 12.2639 4.44444 10.8333 4.25V5.83333H9.16667V2.5H10C11.0278 2.5 11.9967 2.69778 12.9067 3.09333C13.8161 3.48944 14.6111 4.02778 15.2917 4.70833C15.9722 5.38889 16.5106 6.18389 16.9067 7.09333C17.3022 8.00333 17.5 8.97222 17.5 10C17.5 11.0278 17.3022 11.9967 16.9067 12.9067C16.5106 13.8161 15.9722 14.6111 15.2917 15.2917C14.6111 15.9722 13.8161 16.5106 12.9067 16.9067C11.9967 17.3022 11.0278 17.5 10 17.5ZM10 15C9.76389 15 9.56611 14.92 9.40667 14.76C9.24667 14.6006 9.16667 14.4028 9.16667 14.1667C9.16667 13.9306 9.24667 13.7328 9.40667 13.5733C9.56611 13.4133 9.76389 13.3333 10 13.3333C10.2361 13.3333 10.4342 13.4133 10.5942 13.5733C10.7536 13.7328 10.8333 13.9306 10.8333 14.1667C10.8333 14.4028 10.7536 14.6006 10.5942 14.76C10.4342 14.92 10.2361 15 10 15ZM14.1667 10.8333C13.9306 10.8333 13.7328 10.7533 13.5733 10.5933C13.4133 10.4339 13.3333 10.2361 13.3333 10C13.3333 9.76389 13.4133 9.56583 13.5733 9.40583C13.7328 9.24639 13.9306 9.16667 14.1667 9.16667C14.4028 9.16667 14.6006 9.24639 14.76 9.40583C14.92 9.56583 15 9.76389 15 10C15 10.2361 14.92 10.4339 14.76 10.5933C14.6006 10.7533 14.4028 10.8333 14.1667 10.8333ZM5.83333 10.8333C5.59722 10.8333 5.39917 10.7533 5.23917 10.5933C5.07972 10.4339 5 10.2361 5 10C5 9.76389 5.07972 9.56583 5.23917 9.40583C5.39917 9.24639 5.59722 9.16667 5.83333 9.16667C6.06944 9.16667 6.2675 9.24639 6.4275 9.40583C6.58694 9.56583 6.66667 9.76389 6.66667 10C6.66667 10.2361 6.58694 10.4339 6.4275 10.5933C6.2675 10.7533 6.06944 10.8333 5.83333 10.8333Z" fill="#3A4245"/>
</g>
</svg>
